<?xml version="1.0" encoding="UTF-8"?>
<!-- USEMETA — Wordmark only (no icon), gradient fill version -->
<svg xmlns="http://www.w3.org/2000/svg" viewBox="0 0 260 60" fill="none" role="img" aria-label="USEMETA wordmark">
  <defs>
    <linearGradient id="wg" x1="0%" y1="0%" x2="100%" y2="0%">
      <stop offset="0%"   stop-color="#3B82F6"/>
      <stop offset="50%"  stop-color="#8B5CF6"/>
      <stop offset="100%" stop-color="#06B6D4"/>
    </linearGradient>
  </defs>

  <!-- Gradient USEMETA letters — same geometry, gradient stroke -->
  <!-- U -->
  <path d="M 0 8 L 0 34 Q 0 46 10 46 Q 20 46 20 34 L 20 8"
        stroke="url(#wg)" stroke-width="5" stroke-linecap="round" stroke-linejoin="round" fill="none"/>
  <!-- S -->
  <path d="M 46 14 C 41 9, 30 9, 30 20 C 30 27, 40 29, 43 34 C 46 39, 41 46, 33 46 C 28 46, 25 44, 23 42"
        stroke="url(#wg)" stroke-width="5" stroke-linecap="round" stroke-linejoin="round" fill="none" transform="translate(5,0)"/>
  <!-- E -->
  <path d="M 58 8 L 58 46 M 58 8 L 76 8 M 58 27 L 73 27 M 58 46 L 76 46"
        stroke="url(#wg)" stroke-width="5" stroke-linecap="round" stroke-linejoin="round" fill="none"/>
  <!-- M -->
  <path d="M 84 46 L 84 8 L 97 34 L 110 8 L 110 46"
        stroke="url(#wg)" stroke-width="5" stroke-linecap="round" stroke-linejoin="round" fill="none"/>
  <!-- E -->
  <path d="M 118 8 L 118 46 M 118 8 L 136 8 M 118 27 L 133 27 M 118 46 L 136 46"
        stroke="url(#wg)" stroke-width="5" stroke-linecap="round" stroke-linejoin="round" fill="none"/>
  <!-- T -->
  <path d="M 143 8 L 165 8 M 154 8 L 154 46"
        stroke="url(#wg)" stroke-width="5" stroke-linecap="round" stroke-linejoin="round" fill="none"/>
  <!-- A -->
  <path d="M 172 46 L 184 8 L 196 46 M 176.5 32 L 191.5 32"
        stroke="url(#wg)" stroke-width="5" stroke-linecap="round" stroke-linejoin="round" fill="none"/>

  <!-- Bottom accent line -->
  <rect x="0" y="52" width="196" height="2.5" rx="1.25" fill="url(#wg)" opacity="0.6"/>
</svg>
